<svg viewBox="0 0 280 4294900" xmlns="http://www.w3.org/2000/svg">
<rect fill="rgb(73,129,98)" height="50000" width="50000" x="0" y="4000000"/>
<rect fill="rgb(147,132,24)" height="50000" width="50000" x="10000" y="4000000"/>
<rect fill="rgb(46,237,120)" height="50000" width="50000" x="20000" y="4000000"/>
<rect fill="rgb(7,208,37)" height="50000" width="50000" x="30000" y="4000000"/>
<rect fill="rgb(19,58,209)" height="50000" width="50000" x="40000" y="4000000"/>
<rect fill="rgb(161,1,133)" height="50000" width="50000" x="50000" y="4000000"/>
<rect fill="rgb(136,57,93)" height="50000" width="50000" x="60000" y="4000000"/>
<rect fill="rgb(186,237,26)" height="50000" width="50000" x="70000" y="4000000"/>
<rect fill="rgb(8,143,47)" height="50000" width="50000" x="80000" y="4000000"/>
<rect fill="rgb(180,165,47)" height="50000" width="50000" x="90000" y="4000000"/>
<rect fill="rgb(120,233,13)" height="50000" width="50000" x="100000" y="4000000"/>
<rect fill="rgb(254,75,242)" height="50000" width="50000" x="110000" y="4000000"/>
<rect fill="rgb(169,145,205)" height="50000" width="50000" x="120000" y="4000000"/>
<rect fill="rgb(138,112,227)" height="50000" width="50000" x="130000" y="4000000"/>
<rect fill="rgb(41,219,75)" height="50000" width="50000" x="140000" y="4000000"/>
<rect fill="rgb(248,45,236)" height="50000" width="50000" x="150000" y="4000000"/>
<rect fill="rgb(183,29,221)" height="50000" width="50000" x="160000" y="4000000"/>
<rect fill="rgb(121,81,167)" height="50000" width="50000" x="170000" y="4000000"/>
<rect fill="rgb(198,71,61)" height="50000" width="50000" x="180000" y="4000000"/>
<rect fill="rgb(191,87,66)" height="50000" width="50000" x="190000" y="4000000"/>
<rect fill="rgb(221,65,15)" height="50000" width="50000" x="200000" y="4000000"/>
<rect fill="rgb(124,176,25)" height="50000" width="50000" x="210000" y="4000000"/>
<rect fill="rgb(72,92,4)" height="50000" width="50000" x="220000" y="4000000"/>
<rect fill="rgb(217,43,145)" height="50000" width="50000" x="230000" y="4000000"/>
<rect fill="rgb(240,118,65)" height="50000" width="50000" x="240000" y="4000000"/>
<rect fill="rgb(171,253,156)" height="50000" width="50000" x="250000" y="4000000"/>
<rect fill="rgb(57,47,32)" height="50000" width="50000" x="260000" y="4000000"/>
<rect fill="rgb(173,153,45)" height="50000" width="50000" x="270000" y="4000000"/>
<rect fill="rgb(170,75,152)" height="50000" width="50000" x="280000" y="4000000"/>
<rect fill="rgb(184,161,123)" height="50000" width="50000" x="290000" y="4000000"/>
<rect fill="rgb(40,122,38)" height="50000" width="50000" x="300000" y="4000000"/>
<rect fill="rgb(245,21,182)" height="50000" width="50000" x="310000" y="3999999"/>
<rect fill="rgb(86,110,169)" height="50000" width="50000" x="320000" y="3999999"/>
<rect fill="rgb(9,43,39)" height="50000" width="50000" x="330000" y="3999999"/>
<rect fill="rgb(167,186,219)" height="50000" width="50000" x="340000" y="3999999"/>
<rect fill="rgb(28,45,124)" height="50000" width="50000" x="350000" y="3999999"/>
<rect fill="rgb(95,131,253)" height="50000" width="50000" x="360000" y="3999999"/>
<rect fill="rgb(213,219,179)" height="50000" width="50000" x="370000" y="3999999"/>
<rect fill="rgb(179,144,32)" height="50000" width="50000" x="380000" y="3999999"/>
<rect fill="rgb(11,78,170)" height="50000" width="50000" x="390000" y="3999998"/>
<rect fill="rgb(11,211,55)" height="50000" width="50000" x="400000" y="3999998"/>
<rect fill="rgb(97,64,118)" height="50000" width="50000" x="410000" y="3999998"/>
<rect fill="rgb(5,151,177)" height="50000" width="50000" x="420000" y="3999998"/>
<rect fill="rgb(31,25,193)" height="50000" width="50000" x="430000" y="3999997"/>
<rect fill="rgb(206,3,4)" height="50000" width="50000" x="440000" y="3999997"/>
<rect fill="rgb(29,149,241)" height="50000" width="50000" x="450000" y="3999997"/>
<rect fill="rgb(2,149,233)" height="50000" width="50000" x="460000" y="3999996"/>
<rect fill="rgb(215,144,102)" height="50000" width="50000" x="470000" y="3999996"/>
<rect fill="rgb(6,171,180)" height="50000" width="50000" x="480000" y="3999996"/>
<rect fill="rgb(106,9,110)" height="50000" width="50000" x="490000" y="3999996"/>
<rect fill="rgb(99,58,202)" height="50000" width="50000" x="500000" y="3999995"/>
<rect fill="rgb(8,219,35)" height="50000" width="50000" x="510000" y="3999994"/>
<rect fill="rgb(80,95,97)" height="50000" width="50000" x="520000" y="3999994"/>
<rect fill="rgb(173,58,212)" height="50000" width="50000" x="530000" y="3999993"/>
<rect fill="rgb(84,235,215)" height="50000" width="50000" x="540000" y="3999993"/>
<rect fill="rgb(173,209,111)" height="50000" width="50000" x="550000" y="3999992"/>
<rect fill="rgb(78,43,234)" height="50000" width="50000" x="560000" y="3999991"/>
<rect fill="rgb(197,39,147)" height="50000" width="50000" x="570000" y="3999990"/>
<rect fill="rgb(48,137,146)" height="50000" width="50000" x="580000" y="3999989"/>
<rect fill="rgb(143,70,105)" height="50000" width="50000" x="590000" y="3999988"/>
<rect fill="rgb(135,217,200)" height="50000" width="50000" x="600000" y="3999987"/>
<rect fill="rgb(10,137,73)" height="50000" width="50000" x="610000" y="3999986"/>
<rect fill="rgb(24,64,29)" height="50000" width="50000" x="620000" y="3999984"/>
<rect fill="rgb(81,113,98)" height="50000" width="50000" x="630000" y="3999984"/>
<rect fill="rgb(64,198,169)" height="50000" width="50000" x="640000" y="3999981"/>
<rect fill="rgb(27,29,202)" height="50000" width="50000" x="650000" y="3999980"/>
<rect fill="rgb(157,25,147)" height="50000" width="50000" x="660000" y="3999977"/>
<rect fill="rgb(98,123,58)" height="50000" width="50000" x="670000" y="3999976"/>
<rect fill="rgb(83,238,163)" height="50000" width="50000" x="680000" y="3999973"/>
<rect fill="rgb(17,33,55)" height="50000" width="50000" x="690000" y="3999971"/>
<rect fill="rgb(100,231,45)" height="50000" width="50000" x="700000" y="3999969"/>
<rect fill="rgb(112,213,64)" height="50000" width="50000" x="710000" y="3999965"/>
<rect fill="rgb(223,31,197)" height="50000" width="50000" x="720000" y="3999963"/>
<rect fill="rgb(108,67,104)" height="50000" width="50000" x="730000" y="3999957"/>
<rect fill="rgb(3,141,172)" height="50000" width="50000" x="740000" y="3999956"/>
<rect fill="rgb(107,120,241)" height="50000" width="50000" x="750000" y="3999949"/>
<rect fill="rgb(89,22,71)" height="50000" width="50000" x="760000" y="3999946"/>
<rect fill="rgb(72,156,191)" height="50000" width="50000" x="770000" y="3999941"/>
<rect fill="rgb(119,209,91)" height="50000" width="50000" x="780000" y="3999935"/>
<rect fill="rgb(173,185,115)" height="50000" width="50000" x="790000" y="3999932"/>
<rect fill="rgb(69,97,177)" height="50000" width="50000" x="800000" y="3999921"/>
<rect fill="rgb(186,101,187)" height="50000" width="50000" x="810000" y="3999919"/>
<rect fill="rgb(9,27,64)" height="50000" width="50000" x="820000" y="3999906"/>
<rect fill="rgb(149,207,246)" height="50000" width="50000" x="830000" y="3999901"/>
<rect fill="rgb(31,151,190)" height="50000" width="50000" x="840000" y="3999890"/>
<rect fill="rgb(138,226,214)" height="50000" width="50000" x="850000" y="3999881"/>
<rect fill="rgb(172,244,63)" height="50000" width="50000" x="860000" y="3999873"/>
<rect fill="rgb(142,161,13)" height="50000" width="50000" x="870000" y="3999856"/>
<rect fill="rgb(110,125,228)" height="50000" width="50000" x="880000" y="3999850"/>
<rect fill="rgb(187,98,8)" height="50000" width="50000" x="890000" y="3999827"/>
<rect fill="rgb(71,190,13)" height="50000" width="50000" x="900000" y="3999820"/>
<rect fill="rgb(218,195,209)" height="50000" width="50000" x="910000" y="3999796"/>
<rect fill="rgb(174,12,35)" height="50000" width="50000" x="920000" y="3999782"/>
<rect fill="rgb(33,244,75)" height="50000" width="50000" x="930000" y="3999762"/>
<rect fill="rgb(197,143,246)" height="50000" width="50000" x="940000" y="3999736"/>
<rect fill="rgb(172,131,57)" height="50000" width="50000" x="950000" y="3999722"/>
<rect fill="rgb(96,143,66)" height="50000" width="50000" x="960000" y="3999682"/>
<rect fill="rgb(186,35,15)" height="50000" width="50000" x="970000" y="3999669"/>
<rect fill="rgb(55,91,147)" height="50000" width="50000" x="980000" y="3999622"/>
<rect fill="rgb(124,198,234)" height="50000" width="50000" x="990000" y="3999601"/>
<rect fill="rgb(158,184,196)" height="50000" width="50000" x="1000000" y="3999557"/>
<rect fill="rgb(245,192,35)" height="50000" width="50000" x="1010000" y="3999517"/>
<rect fill="rgb(1,236,245)" height="50000" width="50000" x="1020000" y="3999484"/>
<rect fill="rgb(210,125,106)" height="50000" width="50000" x="1030000" y="3999418"/>
<rect fill="rgb(101,59,79)" height="50000" width="50000" x="1040000" y="3999391"/>
<rect fill="rgb(79,24,241)" height="50000" width="50000" x="1050000" y="3999304"/>
<rect fill="rgb(135,20,5)" height="50000" width="50000" x="1060000" y="3999269"/>
<rect fill="rgb(76,101,50)" height="50000" width="50000" x="1070000" y="3999179"/>
<rect fill="rgb(112,242,44)" height="50000" width="50000" x="1080000" y="3999117"/>
<rect fill="rgb(85,149,58)" height="50000" width="50000" x="1090000" y="3999041"/>
<rect fill="rgb(215,5,88)" height="50000" width="50000" x="1100000" y="3998934"/>
<rect fill="rgb(222,163,115)" height="50000" width="50000" x="1110000" y="3998874"/>
<rect fill="rgb(243,169,217)" height="50000" width="50000" x="1120000" y="3998721"/>
<rect fill="rgb(50,16,102)" height="50000" width="50000" x="1130000" y="3998660"/>
<rect fill="rgb(185,195,124)" height="50000" width="50000" x="1140000" y="3998482"/>
<rect fill="rgb(70,119,248)" height="50000" width="50000" x="1150000" y="3998386"/>
<rect fill="rgb(195,91,221)" height="50000" width="50000" x="1160000" y="3998219"/>
<rect fill="rgb(158,186,137)" height="50000" width="50000" x="1170000" y="3998051"/>
<rect fill="rgb(147,247,45)" height="50000" width="50000" x="1180000" y="3997915"/>
<rect fill="rgb(173,13,101)" height="50000" width="50000" x="1190000" y="3997655"/>
<rect fill="rgb(96,177,214)" height="50000" width="50000" x="1200000" y="3997533"/>
<rect fill="rgb(75,214,241)" height="50000" width="50000" x="1210000" y="3997203"/>
<rect fill="rgb(209,161,112)" height="50000" width="50000" x="1220000" y="3997045"/>
<rect fill="rgb(17,198,246)" height="50000" width="50000" x="1230000" y="3996701"/>
<rect fill="rgb(127,246,238)" height="50000" width="50000" x="1240000" y="3996437"/>
<rect fill="rgb(128,238,38)" height="50000" width="50000" x="1250000" y="3996134"/>
<rect fill="rgb(242,58,148)" height="50000" width="50000" x="1260000" y="3995705"/>
<rect fill="rgb(26,164,70)" height="50000" width="50000" x="1270000" y="3995448"/>
<rect fill="rgb(162,138,157)" height="50000" width="50000" x="1280000" y="3994857"/>
<rect fill="rgb(54,67,67)" height="50000" width="50000" x="1290000" y="3994578"/>
<rect fill="rgb(244,2,252)" height="50000" width="50000" x="1300000" y="3993904"/>
<rect fill="rgb(246,126,52)" height="50000" width="50000" x="1310000" y="3993481"/>
<rect fill="rgb(162,9,126)" height="50000" width="50000" x="1320000" y="3992834"/>
<rect fill="rgb(187,204,235)" height="50000" width="50000" x="1330000" y="3992141"/>
<rect fill="rgb(96,78,148)" height="50000" width="50000" x="1340000" y="3991581"/>
<rect fill="rgb(54,17,119)" height="50000" width="50000" x="1350000" y="3990561"/>
<rect fill="rgb(106,161,120)" height="50000" width="50000" x="1360000" y="3990025"/>
<rect fill="rgb(157,184,127)" height="50000" width="50000" x="1370000" y="3988760"/>
<rect fill="rgb(198,226,144)" height="50000" width="50000" x="1380000" y="3988059"/>
<rect fill="rgb(94,122,59)" height="50000" width="50000" x="1390000" y="3986737"/>
<rect fill="rgb(229,121,12)" height="50000" width="50000" x="1400000" y="3985622"/>
<rect fill="rgb(233,101,137)" height="50000" width="50000" x="1410000" y="3984414"/>
<rect fill="rgb(239,127,182)" height="50000" width="50000" x="1420000" y="3982702"/>
<rect fill="rgb(237,158,130)" height="50000" width="50000" x="1430000" y="3981605"/>
<rect fill="rgb(47,72,119)" height="50000" width="50000" x="1440000" y="3979321"/>
<rect fill="rgb(215,225,200)" height="50000" width="50000" x="1450000" y="3978084"/>
<rect fill="rgb(239,15,248)" height="50000" width="50000" x="1460000" y="3975497"/>
<rect fill="rgb(90,58,2)" height="50000" width="50000" x="1470000" y="3973681"/>
<rect fill="rgb(145,104,248)" height="50000" width="50000" x="1480000" y="3971151"/>
<rect fill="rgb(252,199,92)" height="50000" width="50000" x="1490000" y="3968323"/>
<rect fill="rgb(254,180,135)" height="50000" width="50000" x="1500000" y="3966019"/>
<rect fill="rgb(233,169,11)" height="50000" width="50000" x="1510000" y="3962022"/>
<rect fill="rgb(254,161,184)" height="50000" width="50000" x="1520000" y="3959689"/>
<rect fill="rgb(190,14,143)" height="50000" width="50000" x="1530000" y="3954817"/>
<rect fill="rgb(119,168,19)" height="50000" width="50000" x="1540000" y="3951764"/>
<rect fill="rgb(109,19,89)" height="50000" width="50000" x="1550000" y="3946647"/>
<rect fill="rgb(11,159,126)" height="50000" width="50000" x="1560000" y="3942003"/>
<rect fill="rgb(242,55,34)" height="50000" width="50000" x="1570000" y="3937170"/>
<rect fill="rgb(177,108,149)" height="50000" width="50000" x="1580000" y="3930345"/>
<rect fill="rgb(114,186,17)" height="50000" width="50000" x="1590000" y="3925708"/>
<rect fill="rgb(92,216,230)" height="50000" width="50000" x="1600000" y="3916839"/>
<rect fill="rgb(205,146,173)" height="50000" width="50000" x="1610000" y="3911452"/>
<rect fill="rgb(203,1,157)" height="50000" width="50000" x="1620000" y="3901464"/>
<rect fill="rgb(207,186,218)" height="50000" width="50000" x="1630000" y="3893767"/>
<rect fill="rgb(70,232,87)" height="50000" width="50000" x="1640000" y="3883817"/>
<rect fill="rgb(84,28,91)" height="50000" width="50000" x="1650000" y="3872347"/>
<rect fill="rgb(121,74,151)" height="50000" width="50000" x="1660000" y="3862877"/>
<rect fill="rgb(222,17,17)" height="50000" width="50000" x="1670000" y="3847183"/>
<rect fill="rgb(250,23,254)" height="50000" width="50000" x="1680000" y="3837159"/>
<rect fill="rgb(196,107,106)" height="50000" width="50000" x="1690000" y="3818302"/>
<rect fill="rgb(67,187,193)" height="50000" width="50000" x="1700000" y="3805218"/>
<rect fill="rgb(243,60,146)" height="50000" width="50000" x="1710000" y="3785280"/>
<rect fill="rgb(139,34,46)" height="50000" width="50000" x="1720000" y="3766113"/>
<rect fill="rgb(165,234,146)" height="50000" width="50000" x="1730000" y="3746693"/>
<rect fill="rgb(134,24,5)" height="50000" width="50000" x="1740000" y="3719530"/>
<rect fill="rgb(220,112,219)" height="50000" width="50000" x="1750000" y="3700036"/>
<rect fill="rgb(131,77,167)" height="50000" width="50000" x="1760000" y="3665484"/>
<rect fill="rgb(173,77,193)" height="50000" width="50000" x="1770000" y="3642377"/>
<rect fill="rgb(237,246,176)" height="50000" width="50000" x="1780000" y="3603582"/>
<rect fill="rgb(110,14,163)" height="50000" width="50000" x="1790000" y="3571331"/>
<rect fill="rgb(105,144,163)" height="50000" width="50000" x="1800000" y="3531973"/>
<rect fill="rgb(155,164,145)" height="50000" width="50000" x="1810000" y="3485642"/>
<rect fill="rgb(72,30,191)" height="50000" width="50000" x="1820000" y="3446729"/>
<rect fill="rgb(48,175,24)" height="50000" width="50000" x="1830000" y="3385013"/>
<rect fill="rgb(195,218,121)" height="50000" width="50000" x="1840000" y="3342413"/>
<rect fill="rgb(200,110,132)" height="50000" width="50000" x="1850000" y="3269066"/>
<rect fill="rgb(203,200,82)" height="50000" width="50000" x="1860000" y="3213708"/>
<rect fill="rgb(235,136,34)" height="50000" width="50000" x="1870000" y="3135555"/>
<rect fill="rgb(233,63,123)" height="50000" width="50000" x="1880000" y="3056973"/>
<rect fill="rgb(31,88,57)" height="50000" width="50000" x="1890000" y="2978701"/>
<rect fill="rgb(187,95,193)" height="50000" width="50000" x="1900000" y="2870655"/>
<rect fill="rgb(150,245,21)" height="50000" width="50000" x="1910000" y="2789141"/>
<rect fill="rgb(135,213,27)" height="50000" width="50000" x="1920000" y="2654079"/>
<rect fill="rgb(27,113,92)" height="50000" width="50000" x="1930000" y="2556120"/>
<rect fill="rgb(172,230,152)" height="50000" width="50000" x="1940000" y="2404620"/>
<rect fill="rgb(123,219,38)" height="50000" width="50000" x="1950000" y="2270681"/>
<rect fill="rgb(27,248,32)" height="50000" width="50000" x="1960000" y="2114255"/>
<rect fill="rgb(170,209,77)" height="50000" width="50000" x="1970000" y="1927628"/>
<rect fill="rgb(202,68,125)" height="50000" width="50000" x="1980000" y="1767842"/>
<rect fill="rgb(32,77,62)" height="50000" width="50000" x="1990000" y="1524734"/>
<rect fill="rgb(187,249,131)" height="50000" width="50000" x="2000000" y="1345261"/>
<rect fill="rgb(65,82,223)" height="50000" width="50000" x="2010000" y="1058698"/>
<rect fill="rgb(169,240,75)" height="50000" width="50000" x="2020000" y="826801"/>
<rect fill="rgb(73,173,141)" height="50000" width="50000" x="2030000" y="518875"/>
<rect fill="rgb(123,229,250)" height="50000" width="50000" x="2040000" y="198309"/>
<rect fill="rgb(105,224,108)" height="50000" width="50000" x="2050000" y="-117904"/>
<rect fill="rgb(121,64,159)" height="50000" width="50000" x="2060000" y="-547639"/>
<rect fill="rgb(138,232,39)" height="50000" width="50000" x="2070000" y="-886898"/>
<rect fill="rgb(25,209,198)" height="50000" width="50000" x="2080000" y="-1416568"/>
<rect fill="rgb(112,226,194)" height="50000" width="50000" x="2090000" y="-1827939"/>
<rect fill="rgb(169,63,232)" height="50000" width="50000" x="2100000" y="-2422427"/>
<rect fill="rgb(159,239,181)" height="50000" width="50000" x="2110000" y="-2974891"/>
<rect fill="rgb(3,37,101)" height="50000" width="50000" x="2120000" y="-3599029"/>
<rect fill="rgb(160,69,35)" height="50000" width="50000" x="2130000" y="-4349330"/>
<rect fill="rgb(5,80,227)" height="50000" width="50000" x="2140000" y="-5004802"/>
<rect fill="rgb(60,108,39)" height="50000" width="50000" x="2150000" y="-5964208"/>
<rect fill="rgb(250,107,206)" height="50000" width="50000" x="2160000" y="-6714837"/>
<rect fill="rgb(250,14,108)" height="50000" width="50000" x="2170000" y="-7838996"/>
<rect fill="rgb(63,30,195)" height="50000" width="50000" x="2180000" y="-8802830"/>
<rect fill="rgb(147,48,86)" height="50000" width="50000" x="2190000" y="-10021457"/>
<rect fill="rgb(146,220,77)" height="50000" width="50000" x="2200000" y="-11324221"/>
<rect fill="rgb(153,157,79)" height="50000" width="50000" x="2210000" y="-12603832"/>
<rect fill="rgb(169,230,242)" height="50000" width="50000" x="2220000" y="-14313538"/>
<rect fill="rgb(189,27,157)" height="50000" width="50000" x="2230000" y="-15719640"/>
<rect fill="rgb(149,172,124)" height="50000" width="50000" x="2240000" y="-17803204"/>
<rect fill="rgb(213,250,72)" height="50000" width="50000" x="2250000" y="-19517668"/>
<rect fill="rgb(250,130,147)" height="50000" width="50000" x="2260000" y="-21860452"/>
<rect fill="rgb(48,223,61)" height="50000" width="50000" x="2270000" y="-24127052"/>
<rect fill="rgb(26,44,197)" height="50000" width="50000" x="2280000" y="-26625288"/>
<rect fill="rgb(217,212,0)" height="50000" width="50000" x="2290000" y="-29637760"/>
<rect fill="rgb(182,57,147)" height="50000" width="50000" x="2300000" y="-32323472"/>
<rect fill="rgb(171,154,157)" height="50000" width="50000" x="2310000" y="-36116744"/>
<rect fill="rgb(238,76,161)" height="50000" width="50000" x="2320000" y="-39237308"/>
<rect fill="rgb(95,240,84)" height="50000" width="50000" x="2330000" y="-43663656"/>
<rect fill="rgb(220,87,251)" height="50000" width="50000" x="2340000" y="-47644720"/>
<rect fill="rgb(146,243,222)" height="50000" width="50000" x="2350000" y="-52485744"/>
<rect fill="rgb(232,212,225)" height="50000" width="50000" x="2360000" y="-57764812"/>
<rect fill="rgb(129,16,42)" height="50000" width="50000" x="2370000" y="-62948760"/>
<rect fill="rgb(34,160,153)" height="50000" width="50000" x="2380000" y="-69754504"/>
<rect fill="rgb(34,125,73)" height="50000" width="50000" x="2390000" y="-75560780"/>
<rect fill="rgb(69,233,167)" height="50000" width="50000" x="2400000" y="-83780400"/>
<rect fill="rgb(180,99,168)" height="50000" width="50000" x="2410000" y="-90882030"/>
<rect fill="rgb(40,54,143)" height="50000" width="50000" x="2420000" y="-100149400"/>
<rect fill="rgb(193,3,221)" height="50000" width="50000" x="2430000" y="-109409540"/>
<rect fill="rgb(49,103,115)" height="50000" width="50000" x="2440000" y="-119434504"/>
<rect fill="rgb(240,131,207)" height="50000" width="50000" x="2450000" y="-131519320"/>
<rect fill="rgb(23,99,206)" height="50000" width="50000" x="2460000" y="-142509540"/>
<rect fill="rgb(107,128,64)" height="50000" width="50000" x="2470000" y="-157534910"/>
<rect fill="rgb(220,238,30)" height="50000" width="50000" x="2480000" y="-170442820"/>
<rect fill="rgb(240,165,246)" height="50000" width="50000" x="2490000" y="-187929810"/>
<rect fill="rgb(151,188,63)" height="50000" width="50000" x="2500000" y="-204291570"/>
<rect fill="rgb(156,192,34)" height="50000" width="50000" x="2510000" y="-223583900"/>
<rect fill="rgb(137,156,121)" height="50000" width="50000" x="2520000" y="-244928850"/>
<rect fill="rgb(218,153,24)" height="50000" width="50000" x="2530000" y="-265944050"/>
<rect fill="rgb(41,166,104)" height="50000" width="50000" x="2540000" y="-293054200"/>
<rect fill="rgb(223,179,248)" height="50000" width="50000" x="2550000" y="-316952350"/>
</svg>